# xmcd CD database file
#
# Track frame offsets:
#	150
#	45264
#	71851
#	109654
#	145474
#	174166
#	223176
#
# Disc length: 3374 seconds
#
# Revision: 4
# Processed by: cddbd v1.5.1PL2 Copyright (c) Steve Scherf et al.
# Submitted via: CDex 1.51
#
DISCID=640d2c07
DTITLE=Deva Premal - Love is Space
DYEAR=2002
DGENRE=New Age
TTITLE0=Om Shree Saché
TTITLE1=Chidananda
TTITLE2=Om Mani Padme Hum
TTITLE3=Idé Weré Weré
TTITLE4=Jai Radha Madhav
TTITLE5=Gaté Gaté
TTITLE6=Om Namo Narayanaya
EXTD=YEAR: 2002
EXTT0=
EXTT1=
EXTT2=
EXTT3=
EXTT4=
EXTT5=
EXTT6=
PLAYORDER=
